<?xml version="1.0" standalone="no"?><!DOCTYPE svg PUBLIC "-//W3C//DTD SVG 1.1//EN" "http://www.w3.org/Graphics/SVG/1.1/DTD/svg11.dtd"><svg t="1624604587818" class="icon" viewBox="0 0 1024 1024" version="1.1" xmlns="http://www.w3.org/2000/svg" p-id="8920" xmlns:xlink="http://www.w3.org/1999/xlink" width="200" height="200"><defs><style type="text/css"></style></defs><path d="M240 389.12a106.24 106.24 0 0 1 24.96 76.16V640h-51.84v-38.4a128 128 0 0 1-40.32 33.28 148.48 148.48 0 0 1-64 12.8 101.12 101.12 0 0 1-64-21.76 74.24 74.24 0 0 1-25.6-58.88 83.2 83.2 0 0 1 40.96-76.8 167.04 167.04 0 0 1 89.6-21.12h64v-7.68c0-37.76-20.48-56.96-64-56.96a77.44 77.44 0 0 0-44.16 10.24 49.92 49.92 0 0 0-21.76 36.48H25.6a96.64 96.64 0 0 1 41.6-72.32 147.84 147.84 0 0 1 83.84-19.84 115.84 115.84 0 0 1 88.96 30.08zM209.28 512h-57.6c-51.2 0-76.8 17.92-76.8 53.12a33.28 33.28 0 0 0 12.16 26.88 49.28 49.28 0 0 0 35.2 10.88 96 96 0 0 0 64-21.12 72.32 72.32 0 0 0 23.68-56.32zM342.4 366.08h55.68v300.16q0 78.72-82.56 78.72h-26.24v-46.08h21.12c21.12 0 32-11.52 32-34.56z m55.68-98.56a33.28 33.28 0 0 1 11.52 26.88 37.12 37.12 0 0 1-11.52 25.6 39.68 39.68 0 0 1-27.52 10.24 40.96 40.96 0 0 1-27.52-10.24 37.12 37.12 0 0 1-11.52-27.52 33.28 33.28 0 0 1 11.52-26.88 40.32 40.32 0 0 1 55.04 0zM686.08 389.12a106.24 106.24 0 0 1 24.96 76.16V640h-51.84v-38.4a128 128 0 0 1-40.32 33.28 148.48 148.48 0 0 1-64 12.8 101.12 101.12 0 0 1-64-21.76 74.24 74.24 0 0 1-25.6-58.88 83.2 83.2 0 0 1 40.96-76.8 170.24 170.24 0 0 1 89.6-21.12h64v-7.68c0-37.76-20.48-56.96-64-56.96a78.72 78.72 0 0 0-44.8 10.24 51.84 51.84 0 0 0-21.76 36.48h-57.6A96.64 96.64 0 0 1 512 378.88a149.12 149.12 0 0 1 83.84-19.84 115.2 115.2 0 0 1 90.24 30.08zM655.36 512h-57.6c-51.2 0-76.8 17.92-76.8 53.12a35.2 35.2 0 0 0 12.16 26.88 49.92 49.92 0 0 0 35.84 10.88 94.08 94.08 0 0 0 64-21.12 72.32 72.32 0 0 0 23.68-56.32zM758.4 366.08h64l64 87.04 59.52-87.04h64l-94.72 128L1024 640h-64l-75.52-104.32L812.16 640h-64l106.88-145.92z" fill="#5C7999" p-id="8921"></path></svg>