<?xml version="1.0" standalone="no"?><!DOCTYPE svg PUBLIC "-//W3C//DTD SVG 1.1//EN" "http://www.w3.org/Graphics/SVG/1.1/DTD/svg11.dtd"><svg t="1624388568745" class="icon" viewBox="0 0 1024 1024" version="1.1" xmlns="http://www.w3.org/2000/svg" p-id="1180" xmlns:xlink="http://www.w3.org/1999/xlink" width="200" height="200"><defs><style type="text/css"></style></defs><path d="M142.78109867 711.3726483v47.61675852c-25.14397867-0.62744652-49.74546489-1.671168-72.25465364-13.7212966-25.05902459-13.42881185-33.1733523-36.70986903-34.72558458-62.96553244-1.04250785-17.661952-1.11289837-58.8634643-1.1711526-96.60491853-1.79859911-31.54587497-14.09873541-45.43829333-45.14338133-50.7904-0.2500077-1.42237392-0.71118697-2.9697517-0.71118697-4.56082014l-0.0412634-39.20387793 2.21730133-2.0073434c32.67576415-7.90558341 43.38725925-21.21060503 43.76348444-55.35122015 0.25122133-21.88174222-0.37622518-43.76227082 0.20753067-65.64279941 0.37622518-14.80992237 1.00609897-29.78732563 3.64088889-44.30597689 5.81449955-32.09079467 29.16109275-51.50280059 66.52146727-56.52358636 11.04645689-1.46363733 22.17301333-2.38478222 33.30321066-2.55104949 25.93890608-0.37743882 51.90693925-0.09709037 79.560704-0.09709037l-0.02548623 303.88193659c0 36.56666075 4.05716385 41.9636717 40.37260327 52.38025482l-8.70293808 50.91540385c-19.37195615-4.39333925-38.0315117-6.356992-54.89004089-13.01010962-32.17332148-12.6363117-37.23537067-41.79497718-37.36280178-71.75221097l-0.16748088-274.62253986c-14.76744533 1.12867555-28.3649517 1.00124445-41.41996564 3.51345778-15.01866667 2.84474785-23.59538725 15.18614755-24.09904355 33.26194727-0.7087597 25.1864557-0.24879408 50.37291141-0.6674963 75.55815348-0.2087443 11.54768592-0.71118697 23.13663525-2.09108385 34.5581037-2.59716741 21.54678045-12.34382697 39.07523318-30.50093985 50.83287703v3.1372326c27.23627615 19.03578075 32.09079467 47.57064059 32.5920237 77.692928 0.37622518 23.93156267 0.23058963 47.90560237 0.12621749 71.83716504-0.16505363 37.56911882 10.88504415 47.10339318 51.66906785 48.52455348zM323.25632 549.20138903c-3.84841955 31.75583289 20.59772208 60.93148918 54.56842903 67.24721779 32.13205808 5.98319408 63.13301333 0.46117925 95.22502164-9.5803923l7.19439644 43.80353423c0.294912 2.21730133-3.51345778 6.44437333-6.23441541 7.28177777-47.06455703 14.72618192-94.55145718 19.58070045-141.78592237 1.4624237-29.11982933-11.17024711-50.16416711-31.96457718-61.37810488-61.08319289-17.77967408-46.31210667-17.989632-92.92033897 2.97217896-138.27246458 30.6259437-66.31393659 106.93654755-83.55111822 164.04631704-56.983552 34.51562667 16.06602903 51.16662518 45.93709511 57.10976947 81.75009184 3.38602667 20.50184533 3.09475555 41.58744652 4.59844267 64.38790638l-176.31611259-0.01334994z m114.10545778-44.71011555c0.70997333-38.65895822-21.21181867-62.83931497-55.55996445-62.6317843-32.84445867 0.2087443-59.53702875 28.3236883-58.69841066 62.63057067H437.36177778z m443.99911822 254.9471763V711.62993778l13.70673303-0.95998103c25.81511585-2.09351111 37.31911111-13.55867022 37.98660742-39.41262223 0.62866015-24.76775348 0-49.53672059 0.46360652-74.30447407 0.20753067-11.92512475 0.91871763-23.9740397 2.67726695-35.7705197 3.05349215-20.41931852 13.47007525-36.81788208 32.63207349-49.24423586-33.88939378-21.50551703-35.01806933-54.34754845-35.35303111-87.40075141-0.25122133-22.71550578 0.25122133-45.43465245-0.2087443-68.11132207-0.62744652-30.83347437-12.00765155-42.08867555-42.92608-43.46978608l-8.53545718-0.58375585v-47.57064059c26.86005097 0.58618311 53.47130785 1.42237392 77.02421807 16.65099852 21.92421925 14.18490311 28.78365392 36.64797392 29.83101629 60.83318518 1.29737008 29.28609659 0.62744652 58.61345659 1.1711526 87.90076682 0.16748089 8.61919763 0.58618311 17.48840297 2.80348444 25.72894814 5.6482323 21.21424592 20.33193718 32.17332148 42.63238163 32.92941275v46.39706073c-21.33803615 0.91993125-36.60792415 11.08650667-42.33989688 32.34080238-2.25735111 8.24054518-2.84474785 17.06970075-3.01222875 25.64642134-0.58496948 28.90987141 0 57.81974282-1.04736237 86.68592355-1.63111822 45.81451852-25.77021155 71.29467259-71.37355852 76.60672948-11.71516682 1.37989689-23.58203733 1.91146667-36.13460858 2.91513837z m-22.69366045-237.4162963c-24.00802133-11.45909097-54.30264415-22.19000415-63.50681125-27.32001659-15.22983822-7.53299911-21.38051318-18.70324622-19.12194845-31.29465364 2.05103408-11.63264 11.8413843-18.91320415 28.4511194-21.5904711 26.3576083-4.22464475 51.50037333 1.58985482 77.02179083 10.04157155l11.02582517-47.94565215c-30.87716503-9.371648-61.10625185-15.7735443-92.19094755-11.337728-16.02476563 2.25735111-32.50828325 6.44194608-47.02450725 13.38754845-49.03549155 23.42912-49.45298015 100.49338785-5.35574756 125.38735882 14.97618963 8.49298015 31.21212682 14.76865897 46.77328593 22.216704 12.97127348 6.23441541 26.36003555 11.83895703 38.57521777 19.28700207 9.95783111 6.06814815 13.30623525 16.31725037 10.71028149 28.11615763-2.50978608 11.46273185-11.08650667 16.69347555-21.29434549 17.69714726-15.47984592 1.54616415-31.42087111 3.01222875-46.73202251 1.17115259-18.53576533-2.21851497-36.64918755-7.86553363-55.68739556-12.21760948l-9.70660977 48.27940029c44.22223645 16.65221215 88.15198815 19.37316978 132.5429191 9.6252966 37.2365843-8.20049541 58.40592592-29.8310163 61.37567763-59.20085333 4.26833541-41.9224083-8.61919763-65.72653985-45.85578193-84.30235497z m-311.10546014 9.371648c-44.138496-25.31267318-43.42730903-101.79197155 6.31815584-126.51846163 22.13174992-11.00519348 45.5596563-15.10483437 69.61865008-13.22006755 22.71671941 1.79859911 45.20527645 6.48320948 69.13683912 10.08283495l-11.52948148 50.20543053c-25.55904-8.7041517-50.32922075-14.18368948-76.35065364-10.20783881-17.40466252 2.67726697-27.1525357 10.0391443-29.24604681 22.25675378-2.09108385 12.38266311 4.18459497 23.26042548 19.87439881 30.9172148 16.90950163 7.85946548 40.04613689 15.91675259 62.46551704 26.77631053 38.57157689 19.20447525 52.04407941 45.10211792 45.89340445 87.69202251-4.22585837 29.36983703-29.8310163 51.92028918-67.567616 57.86221986-38.32399645 6.02324385-76.35308089 5.02078578-113.75714607-6.94560237-9.1629037-2.9284883-13.01132325-6.48320948-10.20905245-16.52599467l7.99175111-36.10548149s37.02784 9.95661748 55.55996444 12.13386905c15.31357867 1.79859911 31.25339022 0.37622518 46.73202252-1.17357986 10.878976-1.04372148 19.33069275-7.15434667 21.63173452-18.9933037 2.21851497-11.42025482-1.7573357-21.33924978-11.17024711-26.8163603-33.6321043-18.45809303-71.94032355-32.66605511-85.39219437-41.42117926z" fill="#1E9CEF" p-id="1181"></path></svg>