<?xml version="1.0" standalone="no"?><!DOCTYPE svg PUBLIC "-//W3C//DTD SVG 1.1//EN" "http://www.w3.org/Graphics/SVG/1.1/DTD/svg11.dtd"><svg t="1624388391942" class="icon" viewBox="0 0 1024 1024" version="1.1" xmlns="http://www.w3.org/2000/svg" p-id="2613" xmlns:xlink="http://www.w3.org/1999/xlink" width="200" height="200"><defs><style type="text/css"></style></defs><path d="M512-5.81530905c-13.98101333 0-28.47984238 3.52114369-40.38959408 10.09739852L86.3558163 221.50561185C61.50068148 235.59018784 45.96622222 261.89520592 45.96622222 290.16792178v433.30785067c0 28.32449778 15.53445925 54.57773394 40.38959408 68.71409065l100.97398518 56.54543171c49.19245392 23.24990695 65.76254461 23.76772267 88.54641777 23.76772266 72.49414281 0 114.43718281-42.97867022 114.43718281-117.69941925V327.03637216a11.39193719 11.39193719 0 0 0-11.39193598-11.13302994H330.76464238c-6.73159941 0-11.90975169 5.07458962-11.90975291 11.13302994v427.76722606c0 33.34730547-35.21144059 66.17679645-91.65330963 38.37011437l-106.15213746-59.03094518a13.04894578 13.04894578 0 0 1-5.69596921-10.66699496V290.16792178c0-4.55677511 2.07126164-8.59573453 5.69596921-10.61521423l385.25458963-216.65392473a11.44371792 11.44371792 0 0 1 11.39193598 0l385.25458963 216.65392473c3.62470756 2.0194797 5.69596799 6.05843911 5.69596921 10.61521423v433.30785067c0 4.03895941-2.07126164 8.07791882-5.69596921 10.61521302l-385.25458963 216.65392594a12.42756741 12.42756741 0 0 1-11.90975169 0L408.43693868 893.21563022c-4.14252206-1.55344592-8.28504534-2.07126164-10.87412149-0.51781571-27.44421095 15.12020741-32.62236445 18.17531733-57.99531497 25.73542165-6.2137837 2.07126164-16.05227498 5.59240533 3.62470756 16.15583762l128.41819614 74.25471527c12.42756741 7.09406932 25.89076502 10.61521423 40.38959408 10.61521301s27.96202667-3.52114369 40.38959408-10.61521301l385.25458962-216.65392595c24.85513482-14.13635792 40.38959408-40.38959408 40.38959408-68.71409065V290.16792178c0-28.32449778-15.53445925-54.57773394-40.38959408-68.71409186l-385.25458962-217.17174045A83.88608 83.88608 0 0 0 512-5.81530905m103.56306132 310.63740446c-109.77684502 0-175.53938963 44.94636919-175.53938963 120.65096651 0 81.34878459 65.24472889 105.11650725 170.87905186 115.16212506 125.82912 12.16866016 135.66761127 30.34397749 135.66761127 54.57773271 0 41.94304-34.69362608 59.5487609-115.47281423 59.5487609-102.52743111 0-124.27567408-24.69979022-132.0429037-74.20293332a11.65084445 11.65084445 0 0 0-11.39193599-9.11355025h-49.71026963c-6.2137837 0-10.87412148 4.55677511-10.87412149 11.13302996 0 62.65565275 35.21144059 138.412032 204.01923081 138.412032 121.68659794 0 191.59166461-47.01762962 191.59166459-128.8324492 0-81.29700386-55.92405333-102.52743111-174.50375941-118.16545303-119.6153363-15.17198814-131.52508799-23.24990695-131.52508799-50.48699259 0-22.78387317 10.35630577-53.02428801 98.90272354-53.02428801 77.6722963 0 108.2233991 16.62187141 120.13315201 68.66230993 1.03563022 5.07458962 5.69596799 8.59573453 10.87412149 8.59573453h50.22808534c2.58907614 0 5.69596799-1.03563022 7.76722962-3.52114492 2.07126164-2.07126164 3.62470756-5.07458962 2.58907614-8.12969953C799.90531201 346.19553777 738.80310518 304.87387614 615.56306132 304.87387614z" fill="#8BC34A" p-id="2614"></path></svg>