<?xml version="1.0" standalone="no"?><!DOCTYPE svg PUBLIC "-//W3C//DTD SVG 1.1//EN" "http://www.w3.org/Graphics/SVG/1.1/DTD/svg11.dtd"><svg t="1624388331595" class="icon" viewBox="0 0 1024 1024" version="1.1" xmlns="http://www.w3.org/2000/svg" p-id="1585" xmlns:xlink="http://www.w3.org/1999/xlink" width="200" height="200"><defs><style type="text/css"></style></defs><path d="M55.67525888 443.55128889L336.26643001 162.47466667l82.0413622 82.52681443c-11.65084445 41.26340779 7.28177778 86.41043001 45.14702222 108.25576335v268.94032554c-29.12711111 16.50536334-48.54518557 48.05973333-48.54518442 83.98317113a97.09036999 97.09036999 0 0 0 97.09036999 97.09036999 97.09036999 97.09036999 0 0 0 97.09036999-97.09036999c0-35.92343666-19.41807445-67.47780779-48.54518442-83.98317113V386.26796999l100.48853333 101.4594378c-3.39816334 7.28177778-3.39816334 15.53445888-3.39816335 24.27259221a97.09036999 97.09036999 0 0 0 97.09037 97.09036999 97.09036999 97.09036999 0 0 0 97.09037112-97.09036999 97.09036999 97.09036999 0 0 0-97.09037112-97.09036999c-8.73813333 0-16.99081443 0-24.27259222 3.3981622L605.69220779 293.54666667a96.11946667 96.11946667 0 0 0-55.82696334-113.59573334c-20.87443001-7.76723001-42.71976334-9.70903666-62.13783666-4.36906666L405.20059221 93.54050333l38.35069668-37.86524445c37.86524445-38.35069667 99.03217778-38.35069667 136.89742222 0l387.87603001 387.87603001c38.35069667 37.86524445 38.35069667 99.03217778 0 136.89742222l-387.87603001 387.87603001c-37.86524445 38.35069667-99.03217778 38.35069667-136.89742222 0L55.67525888 580.44871111c-38.35069667-37.86524445-38.35069667-99.03217778 0-136.89742222z" fill="#E64A19" p-id="1586"></path></svg>