<?xml version="1.0" standalone="no"?><!DOCTYPE svg PUBLIC "-//W3C//DTD SVG 1.1//EN" "http://www.w3.org/Graphics/SVG/1.1/DTD/svg11.dtd"><svg t="1624388414664" class="icon" viewBox="0 0 1024 1024" version="1.1" xmlns="http://www.w3.org/2000/svg" p-id="3132" xmlns:xlink="http://www.w3.org/1999/xlink" width="200" height="200"><defs><style type="text/css"></style></defs><path d="M95.25333333 268.05333333c-84.58666667 121.49333333-74.13333333 279.46666667-9.38666666 408.53333334 1.49333333 3.09333333 3.09333333 6.08 4.69333333 9.06666666 0.96 2.02666667 1.92 3.94666667 3.09333333 5.97333334 0.53333333 1.06666667 1.17333333 2.24 1.92 3.30666666l3.2 6.08 6.29333334 10.56c1.17333333 1.92 2.24 3.84 3.62666666 5.86666667 2.13333333 3.73333333 4.8 7.46666667 7.04 11.2 1.06666667 1.6 2.02666667 3.09333333 3.09333334 4.69333333 4.37333333 6.93333333 8.53333333 12.69333333 12.8 18.24l-0.42666667-0.64c3.09333333 4.26666667 6.18666667 8.42666667 9.6 12.58666667 1.06666667 1.49333333 2.24 2.98666667 3.41333333 4.58666667l8.85333334 10.77333333c1.06666667 1.17333333 2.13333333 2.66666667 3.30666666 3.94666667 3.94666667 4.69333333 8 9.28 12.16 13.86666666 0 0.10666667 0.10666667 0.10666667 0.21333334 0.32 5.12 6.50666667 10.66666667 12.26666667 16.74666666 17.38666667l0.21333334 0.10666667c3.2 3.30666667 6.4 6.50666667 9.81333333 9.70666666l4.05333333 3.84c4.37333333 4.16 8.85333333 8.32 13.54666667 12.26666667 0.10666667 0 0.10666667 0.10666667 0.21333333 0.10666667l2.24 2.02666666c4.05333333 3.52 8.10666667 7.04 12.37333334 10.34666667l5.01333333 4.16c3.41333333 2.66666667 6.93333333 5.33333333 10.34666667 8l5.44 4.16c3.73333333 2.77333333 7.68 5.54666667 11.41333333 8.21333333 1.38666667 0.96 2.77333333 2.02666667 4.16 2.88l1.17333333 0.96 11.2 7.36 4.8 3.2c5.86666667 3.73333333 11.73333333 7.25333333 17.49333334 10.77333334 1.70666667 0.85333333 3.30666667 1.81333333 4.90666666 2.66666666 4.26666667 2.45333333 8.74666667 5.01333333 13.12 7.25333334 2.34666667 1.38666667 4.90666667 2.56 7.36 3.73333333 2.98666667 1.70666667 6.08 3.30666667 9.28 5.01333333 0.74666667 0.21333333 1.6 0.53333333 2.34666667 0.96h-0.10666667c1.28 0.64 2.56 1.17333333 3.84 1.92 4.8 2.34666667 9.81333333 4.69333333 14.93333334 6.93333334 0.96 0.42666667 2.02666667 0.85333333 2.98666666 1.38666666 5.76 2.56 11.52 4.90666667 17.38666667 7.25333334 1.38666667 0.42666667 2.77333333 1.06666667 4.16 1.6 5.33333333 2.02666667 10.88 4.05333333 16.32 6.08l2.02666667 0.74666666c6.08 2.02666667 12.05333333 4.05333333 18.24 5.97333334 1.38666667 0.42666667 2.88 0.96 4.37333333 1.28 6.29333333 1.92 12.48 4.16 18.88 5.44 408.64 74.45333333 527.46666667-245.65333333 527.46666667-245.65333334C866.34666667 844.8 689.28 879.04 521.6 840.96c-6.18666667-1.38666667-12.48-3.41333333-18.66666667-5.22666667-8.85333333-2.56-17.70666667-5.33333333-26.34666666-8.32l3.73333333 1.17333334-2.45333333-0.96c-5.44-1.81333333-10.66666667-3.84-15.89333334-5.86666667-1.28-0.53333333-2.56-1.06666667-3.94666666-1.49333333l-0.42666667-0.10666667c-5.86666667-2.34666667-11.52-4.8-17.17333333-7.25333333-1.17333333-0.42666667-2.24-0.96-3.52-1.38666667-6.72-2.88-13.33333333-5.97333333-19.84-9.17333333l5.54666666 2.45333333c-1.49333333-0.64-2.77333333-1.28-4.16-2.02666667-3.73333333-1.81333333-7.46666667-3.73333333-11.09333333-5.65333333-2.77333333-1.28-5.54666667-2.77333333-8.21333333-4.26666667l0.85333333 0.42666667c-4.48-2.34666667-8.96-5.01333333-13.54666667-7.46666667-1.38666667-0.96-2.88-1.81333333-4.48-2.66666666-6.72-3.94666667-13.44-8-19.94666666-12.26666667l2.56 1.49333333c-1.70666667-1.06666667-3.30666667-2.13333333-4.90666667-3.30666666l0.21333333 0.21333333c-4.48-2.77333333-8.85333333-5.65333333-13.12-8.64l0.74666667 0.53333333c-1.38666667-0.96-2.66666667-1.92-4.05333333-2.88-5.12-3.52-8.85333333-6.29333333-12.69333334-9.17333333l0.96 0.64c-1.70666667-1.38666667-3.41333333-2.66666667-5.22666666-3.94666667-3.52-2.77333333-7.04-5.33333333-10.56-8.32l-4.69333334-3.73333333c-5.22666667-4.16-9.49333333-7.89333333-13.76-11.62666667l0.42666667 0.42666667c-0.42666667-0.42666667-0.96-0.85333333-1.38666667-1.17333333l-13.86666666-12.58666667-3.94666667-3.73333333c-3.30666667-3.30666667-6.61333333-6.50666667-9.92-9.81333334l-3.84-3.94666666c-4.16-4.05333333-8.10666667-8.32-12.05333333-12.58666667l-0.21333334-0.32-0.64-0.64c-4.26666667-4.69333333-8.32-9.38666667-12.48-14.08-1.06666667-1.17333333-2.02666667-2.56-3.2-3.84l-8.96-10.98666667c-4.05333333-5.12-8-10.34666667-11.94666666-15.57333333l-1.6-2.24c-93.01333333-127.04-126.61333333-302.18666667-52.26666667-445.97333333l-66.34666667 82.98666666z" fill="#0769AD" p-id="3133"></path><path d="M357.65333333 165.76c-61.33333333 88-57.81333333 205.65333333-10.13333333 298.66666667 8.85333333 17.49333333 17.81333333 32.21333333 27.73333333 46.18666666l-0.74666666-1.17333333c9.17333333 13.12 19.30666667 28.69333333 31.57333333 39.25333333 4.37333333 4.90666667 8.96 9.70666667 13.76 14.29333334l3.62666667 3.62666666c4.58666667 4.37333333 9.17333333 8.64 13.97333333 12.90666667l0.64 0.53333333c4.8 4.16 10.13333333 8.64 15.68 13.01333334l0.85333333 0.64c1.38666667 0.96 2.56 2.02666667 3.84 2.88 5.54666667 4.26666667 11.2 8.42666667 16.96 12.58666666l0.64 0.32c2.45333333 1.81333333 5.12 3.41333333 7.89333334 5.12 1.06666667 0.74666667 2.34666667 1.70666667 3.62666666 2.34666667 4.16 2.66666667 8.32 5.22666667 12.58666667 7.89333333l1.92 0.96c3.62666667 2.13333333 7.46666667 4.26666667 11.2 6.29333334 1.28 0.85333333 2.56 1.38666667 3.94666667 2.13333333 2.66666667 1.28 5.33333333 2.66666667 7.89333333 4.05333333l1.28 0.53333334c5.33333333 2.66666667 10.88 5.12 16.21333333 7.57333333 5.65333333 2.45333333 11.30666667 4.8 17.06666667 7.04 2.02666667 0.64 3.84 1.49333333 5.76 2.02666667 4.05333333 1.49333333 8.32 2.88 12.37333333 4.26666666l5.54666667 1.81333334c5.86666667 1.81333333 11.73333333 4.16 17.81333333 5.12 315.41333333 52.26666667 388.48-190.72 388.48-190.72-65.70666667 94.61333333-192.96 139.73333333-328.64 104.53333333-6.72-1.70666667-13.44-3.62666667-20.05333333-5.86666667l2.24 0.64c-1.92-0.53333333-3.62666667-1.06666667-5.44-1.70666666-4.16-1.38666667-8.42666667-2.88-12.48-4.37333334l-5.76-2.13333333c-4.48-1.81333333-8.96-3.41333333-13.33333333-5.33333333-1.38666667-0.64-2.56-0.96-3.62666667-1.6-5.54666667-2.56-11.2-5.01333333-16.64-7.68l-8.21333333-4.26666667-4.8-2.34666667c-3.62666667-1.92-7.04-3.94666667-10.56-5.97333333-0.85333333-0.42666667-1.70666667-0.85333333-2.56-1.38666667l0.10666666 0.10666667c-4.16-2.66666667-8.64-5.12-12.58666666-7.89333333-1.38666667-0.74666667-2.56-1.70666667-3.84-2.45333334l-8.32-5.44c-5.76-3.94666667-11.30666667-8.32-16.96-12.48-1.28-1.17333333-2.56-2.13333333-3.73333334-3.09333333-59.62666667-46.82666667-106.66666667-110.93333333-128.96-183.57333333-23.46666667-75.41333333-18.34666667-160 22.29333334-228.69333334l-50.13333334 70.82666667z" fill="#0769AD" p-id="3134"></path><path d="M578.24 89.28C542.08 142.29333333 538.66666667 208.21333333 563.52 266.66666667c26.45333333 62.18666667 80.53333333 110.93333333 143.57333333 134.08 2.56 0.96 5.12 1.81333333 7.78666667 2.77333333l3.52 1.06666667c3.62666667 1.17333333 7.36 2.56 11.09333333 3.30666666 174.29333333 33.6 221.44-89.49333333 234.13333334-107.52-41.49333333 59.62666667-111.14666667 73.92-196.48 53.12-7.46666667-1.81333333-14.72-4.05333333-21.86666667-6.82666666l1.28 0.42666666c-8.85333333-3.09333333-17.6-6.72-26.02666667-10.77333333l1.49333334 0.64c-15.36-7.46666667-30.08-16.42666667-43.62666667-26.77333333l0.64 0.42666666c-76.48-57.92-123.84-168.53333333-73.92-258.56l-26.88 37.22666667z" fill="#0769AD" p-id="3135"></path></svg>